# xmcd
#
# Track frame offsets: 
#        150
#        13943
#        29744
#        52980
#        75374
#        95387
#        112421
#        128157
#        143686
#        155534
#        179416
#
# Disc length: 2771 seconds
#
# Revision: 0
# Processed by: cddbd v1.5.2PL0 Copyright (c) Steve Scherf et al.
# Submitted via: ExactAudioCopy v0.99pb4
#
DISCID=910ad10b
DTITLE=Walter Jr - The River Club
DYEAR=2008
DGENRE=Blues
TTITLE0=The River Club
TTITLE1=Sugarhouse Road
TTITLE2=What She Want
TTITLE3=Never Make It Up
TTITLE4=What I Was Missing
TTITLE5=Down the Bayou
TTITLE6=Something Something
TTITLE7=Sweet Potato Pie
TTITLE8=She's My Baby Now
TTITLE9=Jesus Say
TTITLE10=He Holds the Lightning
EXTD=
EXTT0=
EXTT1=
EXTT2=
EXTT3=
EXTT4=
EXTT5=
EXTT6=
EXTT7=
EXTT8=
EXTT9=
EXTT10=
PLAYORDER=
